HIERARCHY
ROOT joint_Root
{
	OFFSET 0.0 0.0 0.0
	CHANNELS 6 Xposition Yposition Zposition Zrotation Xrotation Yrotation 
	JOINT Hips
	{
		OFFSET -17.1583 93.1646 452.98
		CHANNELS 6 Xposition Yposition Zposition Zrotation Xrotation Yrotation 
		JOINT Spine
		{
			OFFSET 15.7357 0.0 0.0
			CHANNELS 6 Xposition Yposition Zposition Zrotation Xrotation Yrotation 
			JOINT Chest
			{
				OFFSET 8.98455 -0.406207 0.0
				CHANNELS 6 Xposition Yposition Zposition Zrotation Xrotation Yrotation 
				JOINT Neck
				{
					OFFSET 16.3773 0.0 0.0
					CHANNELS 6 Xposition Yposition Zposition Zrotation Xrotation Yrotation 
					JOINT Head
					{
						OFFSET 6.45672 0.0 0.0
						CHANNELS 6 Xposition Yposition Zposition Zrotation Xrotation Yrotation 
						End Site
						{
							OFFSET 0.0 0.0 0.0
						}
					}
				}
				JOINT Shoulder_L
				{
					OFFSET 12.9942 -0.242716 4.98039
					CHANNELS 6 Xposition Yposition Zposition Zrotation Xrotation Yrotation 
					JOINT UpperArm_L
					{
						OFFSET 5.34809 0.0 0.0
						CHANNELS 6 Xposition Yposition Zposition Zrotation Xrotation Yrotation 
						JOINT LowerArm_L
						{
							OFFSET 24.3286 1.87007e-05 0.0
							CHANNELS 6 Xposition Yposition Zposition Zrotation Xrotation Yrotation 
							JOINT Hand_L
							{
								OFFSET 22.2916 0.0 0.0
								CHANNELS 6 Xposition Yposition Zposition Zrotation Xrotation Yrotation 
								End Site
								{
									OFFSET 0.0 0.0 0.0
								}
							}
						}
					}
				}
				JOINT Shoulder_R
				{
					OFFSET 12.9945 -0.242716 -4.98039
					CHANNELS 6 Xposition Yposition Zposition Zrotation Xrotation Yrotation 
					JOINT UpperArm_R
					{
						OFFSET -5.34813 0.0 0.0
						CHANNELS 6 Xposition Yposition Zposition Zrotation Xrotation Yrotation 
						JOINT LowerArm_R
						{
							OFFSET -24.3289 0.000322201 0.0
							CHANNELS 6 Xposition Yposition Zposition Zrotation Xrotation Yrotation 
							JOINT Hand_R
							{
								OFFSET -22.2915 -0.000108084 0.0
								CHANNELS 6 Xposition Yposition Zposition Zrotation Xrotation Yrotation 
								End Site
								{
									OFFSET 0.0 0.0 0.0
								}
							}
						}
					}
				}
			}
		}
		JOINT UpperLeg_L
		{
			OFFSET -2.19248 -6.46944 0.0
			CHANNELS 6 Xposition Yposition Zposition Zrotation Xrotation Yrotation 
			JOINT LowerLeg_L
			{
				OFFSET 39.0811 0.0 -1.23785e-05
				CHANNELS 6 Xposition Yposition Zposition Zrotation Xrotation Yrotation 
				JOINT Foot_L
				{
					OFFSET 40.9854 0.0 -1.26872e-05
					CHANNELS 6 Xposition Yposition Zposition Zrotation Xrotation Yrotation 
					JOINT Toes_L
					{
						OFFSET 11.7543 0.0 0.0
						CHANNELS 6 Xposition Yposition Zposition Zrotation Xrotation Yrotation 
						End Site
						{
							OFFSET 0.0 0.0 0.0
						}
					}
				}
			}
		}
		JOINT UpperLeg_R
		{
			OFFSET -2.19251 6.46944 0.0
			CHANNELS 6 Xposition Yposition Zposition Zrotation Xrotation Yrotation 
			JOINT LowerLeg_R
			{
				OFFSET -39.0811 -0.00228153 -0.0401928
				CHANNELS 6 Xposition Yposition Zposition Zrotation Xrotation Yrotation 
				JOINT Foot_R
				{
					OFFSET -40.9854 0.0 0.0
					CHANNELS 6 Xposition Yposition Zposition Zrotation Xrotation Yrotation 
					JOINT Toes_R
					{
						OFFSET -11.7543 0.0 0.0
						CHANNELS 6 Xposition Yposition Zposition Zrotation Xrotation Yrotation 
						End Site
						{
							OFFSET 0.0 0.0 0.0
						}
					}
				}
			}
		}
	}
}
MOTION
Frames:	8
Frame Time:	0.0333333
0.000000 0.000000 0.000000 0.000000 0.000000 -0.000000 -0.756424 93.138000 0.588504 88.544900 2.800860 1.603590 15.735700 0.000005 -0.000001 73.840200 86.306000 -64.988500 8.984550 -0.406207 -0.000000 -0.400397 -2.682970 17.688200 16.377300 -0.000001 -0.000001 -0.547237 2.383490 8.519420 6.456720 -0.000001 -0.000000 -16.274600 0.231295 12.903600 12.994200 -0.242716 4.980390 -88.931900 -2.230540 -64.404000 5.348090 -0.000007 -0.000001 -59.142200 -58.382200 -83.431300 24.328600 0.000019 0.000005 0.000353 -24.317000 0.000000 22.291600 -0.000001 0.000005 34.630500 3.495400 31.006000 12.994500 -0.242716 -4.980390 89.537700 1.137080 -67.875700 -5.348130 -0.000001 -0.000004 -65.514100 -4.661980 -6.238690 -24.328900 0.000322 -0.000009 0.519320 1.998690 -14.597500 -22.291500 -0.000108 -0.000004 9.036200 5.232000 1.903760 -2.192480 -6.469440 -0.000000 -173.332000 -11.086700 0.184654 39.081100 -0.000007 -0.000012 0.004321 -0.016348 14.808700 40.985400 -0.000006 -0.000013 -0.066312 18.074500 -68.537300 11.754300 -0.000000 0.000003 -0.001084 0.184218 -9.103940 -2.192510 6.469440 -0.000001 176.928000 9.946280 -177.283000 -39.081100 -0.002282 -0.040193 0.013956 -0.053199 11.289100 -40.985400 0.000008 0.000006 -4.368070 6.781720 -67.442100 -11.754300 -0.000006 -0.000006 -0.010938 0.278183 -5.269580
0.000000 0.000000 0.000000 0.000000 0.000000 -0.000000 -0.863314 93.134400 0.607693 88.533200 3.278340 1.648420 15.735700 0.000005 -0.000001 73.654900 86.362300 -65.006000 8.984550 -0.406207 -0.000000 -0.523866 -2.669330 17.280400 16.377300 -0.000001 -0.000001 -0.604082 2.258280 8.145660 6.456720 -0.000001 -0.000000 -15.972000 0.108645 12.676200 12.994200 -0.242716 4.980390 -88.916100 -2.265880 -64.427100 5.348090 -0.000007 -0.000001 -57.919700 -58.263800 -84.172800 24.328600 0.000019 0.000005 0.000835 -21.223400 0.000001 22.291600 -0.000001 0.000005 34.665300 3.523420 30.645800 12.994500 -0.242716 -4.980390 89.621900 0.932088 -67.918000 -5.348130 -0.000001 -0.000004 -65.691400 -4.696790 -5.590080 -24.328900 0.000322 -0.000009 0.612237 2.477120 -13.910600 -22.291500 -0.000108 -0.000004 9.017280 5.223850 2.114120 -2.192480 -6.469440 -0.000000 -173.272000 -10.608700 0.145177 39.081100 -0.000007 -0.000012 0.005258 -0.019854 14.834500 40.985400 -0.000006 -0.000013 -0.140619 18.065500 -68.552200 11.754300 -0.000000 0.000003 -0.001016 0.183256 -9.143030 -2.192510 6.469440 -0.000001 177.003000 10.145000 -177.175000 -39.081100 -0.002282 -0.040193 0.013657 -0.051665 11.295900 -40.985400 0.000008 0.000006 -4.476140 6.516490 -67.441000 -11.754300 -0.000006 -0.000006 -0.010703 0.276488 -5.338970
0.000000 0.000000 0.000000 0.000000 0.000000 -0.000000 -0.963256 93.135800 0.627481 88.510800 3.647200 1.664930 15.735700 0.000005 -0.000001 73.677200 86.444600 -65.279300 8.984550 -0.406207 -0.000000 -0.694320 -2.615010 16.775200 16.377300 -0.000001 -0.000001 -0.512465 2.231590 7.589460 6.456720 -0.000001 -0.000000 -15.584100 -0.066511 12.524700 12.994200 -0.242716 4.980390 -88.819600 -2.455680 -64.317600 5.348090 -0.000007 -0.000001 -58.728600 -58.576000 -87.836700 24.328600 0.000019 0.000005 0.000859 -17.125800 0.000001 22.291600 -0.000001 0.000005 33.609400 3.640600 29.121900 12.994500 -0.242716 -4.980390 89.655900 0.844905 -67.842000 -5.348130 -0.000001 -0.000004 -65.743400 -4.702860 -5.225320 -24.328900 0.000322 -0.000009 0.645593 2.782310 -13.089900 -22.291500 -0.000108 -0.000004 8.857610 5.217880 2.266870 -2.192480 -6.469440 -0.000000 -173.170000 -10.353100 0.113934 39.081100 -0.000007 -0.000012 0.004672 -0.017687 14.797300 40.985400 -0.000006 -0.000013 -0.218314 18.203900 -68.496000 11.754300 -0.000000 0.000003 -0.001077 0.184130 -9.107510 -2.192510 6.469440 -0.000001 177.078000 10.359700 -177.098000 -39.081100 -0.002282 -0.040193 0.012902 -0.048019 11.266400 -40.985400 0.000008 0.000006 -4.582870 6.423140 -67.417800 -11.754300 -0.000006 -0.000006 -0.010561 0.275450 -5.381440
0.000000 0.000000 0.000000 0.000000 0.000000 -0.000000 -1.056500 93.147200 0.643653 88.403800 3.913310 1.615720 15.735700 0.000005 -0.000001 73.628300 86.561300 -65.473900 8.984550 -0.406207 -0.000000 -0.933184 -2.554370 16.284000 16.377300 -0.000001 -0.000001 -0.157542 2.373180 6.944790 6.456720 -0.000001 -0.000000 -15.211700 -0.226630 12.463900 12.994200 -0.242716 4.980390 -88.673200 -2.719100 -63.976300 5.348090 -0.000007 -0.000001 -58.426100 -58.915700 -91.528900 24.328600 0.000019 0.000005 0.001317 -12.440700 0.000001 22.291600 -0.000001 0.000005 32.375700 3.764290 27.480200 12.994500 -0.242716 -4.980390 89.688100 0.766591 -67.858600 -5.348130 -0.000001 -0.000004 -65.729500 -4.698550 -4.903160 -24.328900 0.000322 -0.000009 0.660498 2.986770 -12.495100 -22.291500 -0.000108 -0.000004 9.068900 5.213020 2.390490 -2.192480 -6.469440 -0.000000 -173.028000 -10.145500 0.005376 39.081100 -0.000007 -0.000012 0.005074 -0.019207 14.799200 40.985400 -0.000006 -0.000013 -0.293549 18.186100 -68.506900 11.754300 -0.000000 0.000003 -0.001103 0.184486 -9.093030 -2.192510 6.469440 -0.000001 177.210000 10.510000 -177.011000 -39.081100 -0.002282 -0.040193 0.009443 -0.031290 11.042500 -40.985400 0.000008 0.000006 -4.998890 6.358920 -67.209400 -11.754300 -0.000006 -0.000006 -0.010696 0.276431 -5.341300
0.000000 0.000000 0.000000 0.000000 0.000000 -0.000000 -1.104020 93.156700 0.666279 88.345400 3.997110 1.531450 15.735700 0.000005 -0.000001 74.731200 86.709600 -66.855500 8.984550 -0.406207 -0.000000 -1.207550 -2.346860 15.723400 16.377300 -0.000001 -0.000001 0.331578 2.682750 6.313320 6.456720 -0.000001 -0.000000 -15.022000 -0.384878 12.624100 12.994200 -0.242716 4.980390 -88.541800 -2.921180 -63.457800 5.348090 -0.000007 -0.000001 -56.727500 -59.168500 -94.512200 24.328600 0.000019 0.000005 -0.136546 -8.144550 -0.979339 22.291600 -0.000001 0.000005 32.620000 3.886160 25.821700 12.994500 -0.242716 -4.980390 89.703800 0.729869 -67.913600 -5.348130 -0.000001 -0.000004 -65.643400 -4.754630 -4.583350 -24.328900 0.000322 -0.000009 0.636172 2.941320 -12.229500 -22.291500 -0.000108 -0.000004 9.258680 5.211690 2.424200 -2.192480 -6.469440 -0.000000 -172.974000 -9.841670 -0.029313 39.081100 -0.000007 -0.000012 0.005844 -0.022262 14.711500 40.985400 -0.000006 -0.000013 -0.356594 18.050900 -68.549000 11.754300 -0.000000 0.000003 -0.001082 0.184196 -9.104820 -2.192510 6.469440 -0.000001 177.244000 10.788300 -177.002000 -39.081100 -0.002282 -0.040193 0.006724 -0.017605 10.890400 -40.985400 0.000008 0.000006 -5.335660 6.621830 -67.008600 -11.754300 -0.000006 -0.000006 -0.010750 0.276825 -5.325170
0.000000 0.000000 0.000000 0.000000 0.000000 -0.000000 -1.126850 93.163700 0.677398 88.263600 4.055240 1.448760 15.735700 0.000005 -0.000001 76.147100 86.858900 -68.533800 8.984550 -0.406207 -0.000000 -1.480480 -2.115860 15.196800 16.377300 -0.000001 -0.000001 0.683246 3.073920 5.724100 6.456720 -0.000001 -0.000000 -14.743100 -0.434828 12.983100 12.994200 -0.242716 4.980390 -88.448900 -3.035510 -62.917100 5.348090 -0.000007 -0.000001 -54.417400 -59.548200 -96.704900 24.328600 0.000019 0.000005 -0.315882 -3.393790 -5.383700 22.291600 -0.000001 0.000005 33.254800 4.000790 24.217000 12.994500 -0.242716 -4.980390 89.677100 0.801234 -68.050200 -5.348130 -0.000001 -0.000004 -65.430700 -4.883120 -4.253600 -24.328900 0.000322 -0.000009 0.628589 2.866620 -12.393700 -22.291500 -0.000108 -0.000004 9.453760 5.210620 2.451350 -2.192480 -6.469440 -0.000000 -172.930000 -9.509260 -0.165804 39.081100 -0.000007 -0.000012 0.006209 -0.023627 14.726300 40.985400 -0.000006 -0.000013 -0.420063 17.746100 -68.472700 11.754300 -0.000000 0.000003 -0.001029 0.183449 -9.135190 -2.192510 6.469440 -0.000001 177.285000 11.125300 -176.947000 -39.081100 -0.002282 -0.040193 0.004700 -0.007246 10.645800 -40.985400 0.000008 0.000006 -5.492450 6.926120 -66.790700 -11.754300 -0.000006 -0.000006 -0.010449 0.274631 -5.414930
0.000000 0.000000 0.000000 0.000000 0.000000 -0.000000 -1.139630 93.159100 0.690828 88.228200 4.205210 1.471380 15.735700 0.000005 -0.000001 77.123700 86.955300 -69.747500 8.984550 -0.406207 -0.000000 -1.660830 -1.961420 14.722100 16.377300 -0.000001 -0.000001 0.924231 3.454450 5.129110 6.456720 -0.000001 -0.000000 -14.447700 -0.475243 13.350600 12.994200 -0.242716 4.980390 -88.461400 -2.990240 -62.755900 5.348090 -0.000007 -0.000001 -53.394900 -60.210800 -99.098900 24.328600 0.000019 0.000005 0.449695 2.160890 -11.612500 22.291600 -0.000001 0.000005 34.273800 4.146780 22.106800 12.994500 -0.242716 -4.980390 89.592800 1.013430 -68.109300 -5.348130 -0.000001 -0.000004 -65.038700 -4.815240 -4.169100 -24.328900 0.000322 -0.000009 0.606460 2.679750 -12.778300 -22.291500 -0.000108 -0.000004 9.560540 5.209120 2.489860 -2.192480 -6.469440 -0.000000 -172.931000 -8.978220 -0.218235 39.081100 -0.000007 -0.000012 0.007767 -0.029341 14.827500 40.985400 -0.000006 -0.000013 -0.464535 17.398000 -68.595400 11.754300 -0.000000 0.000003 -0.001167 0.185385 -9.056490 -2.192510 6.469440 -0.000001 177.275000 11.563700 -176.909000 -39.081100 -0.002282 -0.040193 0.003891 -0.002933 10.684000 -40.985400 0.000008 0.000006 -5.552000 7.213390 -66.826600 -11.754300 -0.000006 -0.000006 -0.010894 0.277871 -5.282360
0.000000 0.000000 0.000000 0.000000 0.000000 -0.000000 -1.149380 93.148800 0.696950 88.175600 4.403740 1.594410 15.735700 0.000005 -0.000001 77.058500 86.952300 -69.850500 8.984550 -0.406207 -0.000000 -1.661680 -1.955870 14.385700 16.377300 -0.000001 -0.000001 1.111210 3.714750 4.601210 6.456720 -0.000001 -0.000000 -14.293000 -0.416503 13.590600 12.994200 -0.242716 4.980390 -88.479200 -2.944430 -62.667500 5.348090 -0.000007 -0.000001 -53.334300 -60.841000 -101.200000 24.328600 0.000019 0.000005 2.784510 8.148320 -18.903900 22.291600 -0.000001 0.000005 35.665500 4.362900 18.829100 12.994500 -0.242716 -4.980390 89.527400 1.176140 -68.109200 -5.348130 -0.000001 -0.000004 -64.810200 -4.683640 -4.597510 -24.328900 0.000322 -0.000009 0.592508 2.546910 -13.123400 -22.291500 -0.000108 -0.000004 9.726230 5.208500 2.505200 -2.192480 -6.469440 -0.000000 -172.895000 -8.521560 -0.230074 39.081100 -0.000007 -0.000012 0.007948 -0.029702 14.982200 40.985400 -0.000006 -0.000013 -0.471488 17.199600 -68.562400 11.754300 -0.000000 0.000003 -0.001033 0.183504 -9.132930 -2.192510 6.469440 -0.000001 177.279000 11.752200 -176.738000 -39.081100 -0.002282 -0.040193 0.003007 0.001757 10.646100 -40.985400 0.000008 0.000006 -5.623890 7.227740 -66.722700 -11.754300 -0.000006 -0.000006 -0.010449 0.274628 -5.415070
